HIERARCHY
ROOT Hips
{
    OFFSET 0.000000 0.000000 0.000000
    CHANNELS 6 Xposition Yposition Zposition Zrotation Xrotation Yrotation
        JOINT Chest
        {
            OFFSET -0.000000 31.966684 -0.000000
            CHANNELS 3 Zrotation Xrotation Yrotation
            JOINT Neck
            {
                OFFSET -0.000000 23.973995 0.000000
                CHANNELS 3 Zrotation Xrotation Yrotation
                JOINT Head
                {
                    OFFSET -0.000000 10.633333 0.000000
                    CHANNELS 3 Zrotation Xrotation Yrotation
                    End Site
                    {
                        OFFSET -0.000000 16.433334 0.000000
                    }
                }
            }
            JOINT LeftCollar
            {
                OFFSET -0.000000 23.973995 0.000000
                CHANNELS 3 Zrotation Xrotation Yrotation
                JOINT LeftShoulder
                {
                    OFFSET 19.333332 -0.000000 0.000000
                    CHANNELS 3 Zrotation Xrotation Yrotation
                    JOINT LeftElbow
                    {
                        OFFSET 20.067463 0.000000 0.000000
                        CHANNELS 3 Zrotation Xrotation Yrotation
                        JOINT LeftWrist
                        {
                            OFFSET 23.490957 0.000000 0.000000
                            CHANNELS 3 Zrotation Xrotation Yrotation
                            End Site
                            {
                                OFFSET 0.000000 -14.500000 0.000000
                            }
                        }
                    }
                }
            }
            JOINT RightCollar
            {
                OFFSET -0.000000 23.973995 0.000000
                CHANNELS 3 Zrotation Xrotation Yrotation
                JOINT RightShoulder
                {
                    OFFSET -19.333332 0.000000 0.000000
                    CHANNELS 3 Zrotation Xrotation Yrotation
                    JOINT RightElbow
                    {
                        OFFSET -20.067463 0.000000 0.000000
                        CHANNELS 3 Zrotation Xrotation Yrotation
                        JOINT RightWrist
                        {
                            OFFSET -23.490957 0.000000 0.000000
                            CHANNELS 3 Zrotation Xrotation Yrotation
                            End Site
                            {
                                OFFSET -0.000000 -14.500000 0.000000
                            }
                        }
                    }
                }
            }
        }
    JOINT LeftHip
    {
        OFFSET 11.599999 0.000000 0.000000
        CHANNELS 3 Zrotation Xrotation Yrotation
        JOINT LeftKnee
        {
            OFFSET -0.000000 -35.131119 0.000000
            CHANNELS 3 Zrotation Xrotation Yrotation
            JOINT LeftAnkle
            {
                OFFSET -0.000000 -37.839104 0.000000
                CHANNELS 3 Zrotation Xrotation Yrotation
                End Site
                {
                    OFFSET -0.000000 -4.833333 16.433334
                }
            }
        }
    }
    JOINT RightHip
    {
        OFFSET -11.599999 0.000000 0.000000
        CHANNELS 3 Zrotation Xrotation Yrotation
        JOINT RightKnee
        {
            OFFSET -0.000000 -35.131119 0.000000
            CHANNELS 3 Zrotation Xrotation Yrotation
            JOINT RightAnkle
            {
                OFFSET -0.000000 -37.839104 0.000000
                CHANNELS 3 Zrotation Xrotation Yrotation
                End Site
                {
                    OFFSET -0.000000 -4.833333 16.433334
                }
            }
        }
    }
}
MOTION
Frames:    12
Frame Time:    0.010000
-55.033283    83.893356    -62.181591    2.921224    -8.723649    -34.085190    -9.629057    10.331131    -0.030121    2.729316    5.784033    5.046390    -10.563231    -11.071779    4.208110    -15.147339    -0.001277    0.158389    -39.493271    34.939659    -24.526903    -21.575649    10.179327    -50.021832    95.769127    7.533385    25.161884    16.408497    0.283216    2.201741    55.576763    35.156055    9.760452    9.928135    3.649208    40.565983    -119.839790    -12.178204    39.960209    -6.339334    13.006810    -0.415431    -0.712756    1.278817    -0.618509    -0.035589    -10.666742    31.511068    -20.041981    -7.304580    -8.427756    8.870625    36.875584    -19.094572    11.943562    -8.372478    -16.195118    
-55.274876    83.860878    -62.164455    2.805929    -8.935353    -34.031662    -9.604834    10.360207    0.040133    1.047746    5.579521    5.500048    -8.690024    -11.026970    4.715003    -15.485573    -0.081649    1.113025    -39.373772    34.725769    -24.731844    -21.750072    10.341657    -50.389416    95.389328    7.522800    26.020777    16.195808    0.366097    3.184876    56.227940    34.857563    9.377816    10.049301    3.693727    40.013657    -120.749649    -13.208757    40.804970    -6.207438    13.376125    -1.185397    -0.731636    1.215290    0.130494    -0.267333    -10.778147    31.496511    -19.436071    -6.305108    -7.845361    8.483386    35.756004    -19.687023    11.047134    -8.975820    -15.720983    
-55.461151    83.835480    -62.165009    2.837454    -8.951173    -33.980324    -9.728618    10.346041    0.224748    0.950481    5.521586    5.491781    -8.418257    -10.887857    4.733520    -15.648663    -0.124439    1.147547    -39.171398    34.709709    -24.609200    -22.439346    11.002488    -51.343708    101.771011    12.395704    28.854836    16.231150    0.427518    3.231845    56.252544    35.331692    9.711696    9.590372    3.424664    40.020535    -121.001045    -12.890130    40.811512    -6.128117    13.329219    -0.982892    -0.691807    1.420761    -0.107421    -1.124975    -11.423320    31.679628    -19.031649    -5.589494    -7.865396    7.985924    34.580284    -20.568073    11.759706    -8.934228    -15.032207    
-55.613590    83.827972    -62.172646    2.825264    -8.994443    -33.930676    -9.819087    10.350728    0.315856    1.037279    5.524905    5.469881    -8.383011    -10.731540    4.731073    -15.739330    -0.154201    1.102855    -39.083012    34.631489    -24.449242    -22.719620    11.186065    -51.621876    103.117149    13.327056    29.702049    16.279110    0.458276    3.297618    56.476883    35.411293    9.800006    9.329218    3.321692    39.882648    -121.458969    -13.062997    41.033813    -6.042427    13.381226    -1.185221    -0.692015    1.493041    0.094099    -1.373209    -11.590137    31.687202    -18.697050    -5.016223    -7.784471    7.681911    33.797466    -20.795137    11.820254    -9.240691    -14.850082    
-55.784000    83.824280    -62.188850    2.818084    -9.017848    -33.868504    -9.901859    10.345276    0.420259    1.085745    5.485109    5.459337    -8.316549    -10.530970    4.742555    -15.856080    -0.136623    1.063804    -39.002460    34.455074    -24.284750    -23.025255    11.396913    -51.825161    104.293304    13.967843    30.417217    16.300068    0.479315    3.383636    56.703300    35.505074    9.923581    9.083652    3.217283    39.671940    -122.022591    -13.319479    41.334377    -5.932544    13.401124    -1.414142    -0.699765    1.588199    0.325712    -1.602317    -11.739573    31.681667    -18.330669    -4.405004    -7.762465    7.349807    32.946392    -20.919607    11.897539    -9.604232    -14.725224    
-55.964642    83.824173    -62.222397    2.827377    -8.991268    -33.784348    -9.972875    10.298365    0.521853    1.168233    5.425982    5.438097    -8.272176    -10.299752    4.746153    -15.986176    -0.110968    0.984824    -38.957653    34.216732    -24.074430    -23.270643    11.553340    -52.001289    105.197510    14.304606    30.914364    16.303484    0.507546    3.458716    56.910076    35.585197    10.101878    8.861050    3.118909    39.397518    -122.659920    -13.657896    41.718975    -5.786515    13.344105    -1.705585    -0.720693    1.714388    0.601212    -1.805098    -11.860569    31.670652    -17.937675    -3.814031    -7.842341    6.993267    32.068253    -20.901546    11.971787    -10.006658    -14.674147    
-56.139885    83.826324    -62.293129    2.883035    -8.851986    -33.650017    -10.022471    10.138197    0.580735    1.309932    5.373603    5.398448    -8.271380    -10.061393    4.729916    -16.122013    -0.141119    0.846294    -38.993221    33.966244    -23.756144    -23.409389    11.636761    -52.157497    105.774940    14.348186    31.180981    16.297707    0.479166    3.510697    57.107426    35.689613    10.278886    8.585756    2.993050    39.160797    -123.275620    -14.012792    42.170555    -5.583844    13.114116    -2.186164    -0.765811    1.884690    0.999789    -1.978696    -11.935358    31.666773    -17.520611    -3.352604    -8.098872    6.608077    31.224184    -20.700588    12.022090    -10.425112    -14.708140    
-56.287521    83.829315    -62.429428    3.030385    -8.512424    -33.421944    -10.043614    9.762976    0.537851    1.528597    5.357609    5.332802    -8.327417    -9.845942    4.684909    -16.257559    -0.103304    0.635299    -39.100407    33.584049    -23.355783    -23.676893    11.797049    -52.093994    106.177483    14.022067    31.259083    16.279737    0.512389    3.529858    57.252239    35.706642    10.521610    8.463822    2.956877    38.775364    -123.920334    -14.446158    42.656586    -5.301394    12.572949    -3.055127    -0.852039    2.116359    1.658951    -2.124241    -11.940649    31.682804    -17.081600    -3.169300    -8.627290    6.183661    30.487976    -20.280706    12.030864    -10.835765    -14.831130    
-56.387066    83.834267    -62.654922    3.312098    -7.898734    -33.061523    -10.034608    9.083909    0.340841    1.794325    5.393539    5.246297    -8.418530    -9.676266    4.616411    -16.389111    -0.070190    0.367896    -39.289513    33.161949    -22.881771    -23.829298    11.837433    -51.998661    106.167206    13.466356    31.109632    16.255627    0.476574    3.523970    57.364201    35.760246    10.737013    8.247284    2.845925    38.543865    -124.338875    -14.776050    43.163960    -4.931307    11.594967    -4.476134    -0.998578    2.427763    2.694429    -2.245254    -11.858970    31.727100    -16.632322    -3.393516    -9.499667    5.713278    29.919230    -19.626469    11.987090    -11.215946    -15.038453    
-56.430115    83.846634    -62.972279    3.746385    -6.995239    -32.558716    -10.015946    8.071462    -0.027043    2.091313    5.487399    5.142576    -8.530806    -9.561748    4.526135    -16.510885    -0.026407    0.056983    -39.564465    32.691021    -22.335224    -23.966114    11.854456    -51.808552    105.941490    12.765537    30.880024    16.218826    0.494137    3.494355    57.412441    35.731754    10.982605    8.197449    2.831743    38.209267    -124.588966    -15.056330    43.625027    -4.498539    10.135653    -6.455855    -1.218186    2.831705    4.103515    -2.347852    -11.691951    31.801458    -16.203833    -4.063880    -10.718914    5.204672    29.532118    -18.759846    11.887965    -11.544068    -15.313786    
-56.426525    83.874657    -63.356567    4.312521    -5.863924    -31.942692    -10.010683    6.786565    -0.533617    2.345955    5.610930    5.038348    -8.607261    -9.486738    4.436584    -16.623987    0.018019    -0.250933    -39.912163    32.199059    -21.759058    -24.079859    11.852674    -51.595634    105.699265    12.152594    30.698889    16.159609    0.518566    3.462718    57.381145    35.690304    11.245043    8.129068    2.813744    37.987453    -124.451378    -15.111933    44.001064    -4.056409    8.271947    -8.805817    -1.507860    3.327878    5.731701    -2.441427    -11.463519    31.901613    -15.838145    -5.092060    -12.201139    4.685184    29.283096    -17.744354    11.738091    -11.802006    -15.632390    
-56.402027    83.924698    -63.764824    4.950790    -4.625779    -31.271828    -10.039474    5.363589    -1.113963    2.535089    5.733676    4.941185    -8.625795    -9.426491    4.354264    -16.723326    0.062933    -0.531282    -40.308720    31.712584    -21.192039    -24.212196    11.869873    -51.408993    105.733231    11.846698    30.729258    16.077036    0.493774    3.431480    57.294392    35.680256    11.474356    8.034645    2.765279    37.912048    -123.876320    -14.871388    44.244526    -3.656396    6.187786    -11.224198    -1.846139    3.897881    7.340065    -2.539596    -11.209868    32.018131    -15.558612    -6.288963    -13.799171    4.191811    29.087849    -16.669630    11.545937    -11.977016    -15.968418    
